<svg width="221" height="253" viewBox="0 0 221 253" fill="none" xmlns="http://www.w3.org/2000/svg">
<rect width="221" height="253" fill="#FDF7F7"/>
<g clip-path="url(#clip0)">
<rect width="221" height="253" fill="white"/>
<circle cx="110.804" cy="105" r="70" fill="#FBAD37"/>
<path fill-rule="evenodd" clip-rule="evenodd" d="M85.8044 101C91.3272 101 95.8044 96.5229 95.8044 91C95.8044 85.4771 91.3272 81 85.8044 81C80.2816 81 75.8044 85.4771 75.8044 91C75.8044 96.5229 80.2816 101 85.8044 101ZM144.804 91C144.804 96.5229 140.327 101 134.804 101C129.282 101 124.804 96.5229 124.804 91C124.804 85.4771 129.282 81 134.804 81C140.327 81 144.804 85.4771 144.804 91ZM113.565 126.916C122.75 126.353 129.804 123.023 129.804 119C129.804 114.582 121.298 111 110.804 111C100.311 111 91.8044 114.582 91.8044 119C91.8044 122.942 98.5766 126.218 107.49 126.879C109.262 132.179 107.602 138.245 102.927 141.85C97.0225 146.404 88.5452 145.308 83.9922 139.404L81.6165 141.236C87.1813 148.452 97.5424 149.791 104.759 144.226C107.647 141.998 109.594 139.002 110.534 135.747C111.473 139.002 113.42 141.998 116.308 144.226C123.525 149.791 133.886 148.452 139.451 141.236L137.075 139.404C132.522 145.308 124.045 146.404 118.14 141.85C113.476 138.254 111.813 132.208 113.565 126.916Z" fill="#0B0A0A"/>
<path fill-rule="evenodd" clip-rule="evenodd" d="M9.38498 157.766C22.4082 163.725 44.1281 144.16 57.8979 114.068C71.6675 83.9748 72.2726 54.749 59.2494 48.7899C46.2261 42.8308 24.5061 62.395 10.7365 92.4878C-3.03317 122.581 -3.63827 151.807 9.38498 157.766ZM211.249 157.766C198.226 163.725 176.506 144.16 162.736 114.068C148.967 83.9748 148.362 54.749 161.385 48.7899C174.408 42.8308 196.128 62.395 209.898 92.4878C223.668 122.581 224.273 151.807 211.249 157.766Z" fill="#DB8B12"/>
<path d="M83.445 232H80.0524V220.17H67.1501V232H63.7751V206.406H67.1501V217.41H80.0524V206.406H83.445V232ZM100.672 232C100.484 231.625 100.332 230.957 100.215 229.996C98.7028 231.566 96.8981 232.352 94.8005 232.352C92.9255 232.352 91.3845 231.824 90.1774 230.77C88.9821 229.703 88.3845 228.355 88.3845 226.727C88.3845 224.746 89.1345 223.211 90.6345 222.121C92.1462 221.02 94.2673 220.469 96.9977 220.469H100.162V218.975C100.162 217.838 99.822 216.936 99.1423 216.268C98.4626 215.588 97.4606 215.248 96.1364 215.248C94.9763 215.248 94.0036 215.541 93.2184 216.127C92.4333 216.713 92.0407 217.422 92.0407 218.254H88.7712C88.7712 217.305 89.1052 216.391 89.7731 215.512C90.4528 214.621 91.3669 213.918 92.5153 213.402C93.6755 212.887 94.947 212.629 96.3298 212.629C98.5212 212.629 100.238 213.18 101.48 214.281C102.722 215.371 103.367 216.877 103.414 218.799V227.553C103.414 229.299 103.636 230.688 104.082 231.719V232H100.672ZM95.2751 229.521C96.2946 229.521 97.2614 229.258 98.1755 228.73C99.0895 228.203 99.7516 227.518 100.162 226.674V222.771H97.613C93.6286 222.771 91.6364 223.938 91.6364 226.27C91.6364 227.289 91.9763 228.086 92.6559 228.66C93.3356 229.234 94.2087 229.521 95.2751 229.521ZM117.705 215.898C117.213 215.816 116.679 215.775 116.105 215.775C113.972 215.775 112.525 216.684 111.763 218.5V232H108.511V212.98H111.675L111.728 215.178C112.795 213.479 114.306 212.629 116.263 212.629C116.896 212.629 117.377 212.711 117.705 212.875V215.898ZM136.777 222.701C136.777 225.596 136.115 227.928 134.791 229.697C133.466 231.467 131.674 232.352 129.412 232.352C127.103 232.352 125.287 231.619 123.963 230.154V239.312H120.711V212.98H123.681L123.84 215.09C125.164 213.449 127.004 212.629 129.359 212.629C131.644 212.629 133.449 213.49 134.773 215.213C136.109 216.936 136.777 219.332 136.777 222.402V222.701ZM133.525 222.332C133.525 220.188 133.068 218.494 132.154 217.252C131.24 216.01 129.986 215.389 128.392 215.389C126.424 215.389 124.947 216.262 123.963 218.008V227.096C124.935 228.83 126.424 229.697 128.427 229.697C129.986 229.697 131.222 229.082 132.136 227.852C133.062 226.609 133.525 224.77 133.525 222.332ZM148.818 232.352C146.24 232.352 144.142 231.508 142.525 229.82C140.908 228.121 140.099 225.854 140.099 223.018V222.42C140.099 220.533 140.457 218.852 141.172 217.375C141.898 215.887 142.906 214.727 144.195 213.895C145.496 213.051 146.902 212.629 148.414 212.629C150.886 212.629 152.808 213.443 154.179 215.072C155.55 216.701 156.236 219.033 156.236 222.068V223.422H143.351C143.398 225.297 143.943 226.814 144.986 227.975C146.041 229.123 147.377 229.697 148.994 229.697C150.142 229.697 151.115 229.463 151.912 228.994C152.709 228.525 153.406 227.904 154.004 227.131L155.99 228.678C154.396 231.127 152.006 232.352 148.818 232.352ZM148.414 215.301C147.101 215.301 146 215.781 145.109 216.742C144.218 217.691 143.668 219.027 143.457 220.75H152.984V220.504C152.89 218.852 152.445 217.574 151.648 216.672C150.851 215.758 149.773 215.301 148.414 215.301ZM169.209 215.898C168.716 215.816 168.183 215.775 167.609 215.775C165.476 215.775 164.029 216.684 163.267 218.5V232H160.015V212.98H163.179L163.232 215.178C164.299 213.479 165.81 212.629 167.767 212.629C168.4 212.629 168.881 212.711 169.209 212.875V215.898Z" fill="#DB8B12"/>
</g>
<defs>
<clipPath id="clip0">
<rect width="221" height="253" fill="white"/>
</clipPath>
</defs>
</svg>
